<svg width="199" height="103" viewBox="0 0 199 103" fill="none" xmlns="http://www.w3.org/2000/svg">
<path d="M196.552 81.4203C195.818 83.1137 194.909 84.7257 193.84 86.23C192.319 88.3587 190.509 90.2646 188.463 91.8925C184.385 95.1584 179.584 97.3415 174.666 98.8438C169.732 100.292 164.663 101.229 159.539 101.64C154.437 102.072 149.313 102.181 144.198 101.967C139.09 101.776 133.998 101.326 128.933 100.682C118.812 99.3578 108.784 97.4005 98.9079 94.8216C89.0309 92.2683 79.2927 89.205 69.7323 85.6441C60.1603 82.108 50.8017 78.0176 41.704 73.3935C37.1613 71.0661 32.6765 68.5758 28.3412 65.8864C23.9701 63.2082 19.769 60.2609 15.7619 57.0615C13.7623 55.4548 11.8286 53.7481 9.98836 51.9449C8.13286 50.1346 6.42218 48.1807 4.87211 46.1013C3.28234 44.0003 1.99719 41.6839 1.05485 39.2209C0.0721386 36.6852 -0.231079 33.9347 0.175337 31.2428L1.95527 31.5448C1.59431 33.9268 1.86349 36.3611 2.73587 38.604C3.61591 40.9091 4.816 43.0777 6.30067 45.0456C7.79293 47.0532 9.43916 48.9408 11.2244 50.6912C13.0061 52.4608 14.8972 54.1276 16.8521 55.7152C20.7961 58.8765 24.9312 61.7905 29.2338 64.4408C33.5302 67.1162 37.9561 69.5871 42.4605 71.9114C51.4933 76.5178 60.7844 80.5973 70.2876 84.1294C79.7892 87.6935 89.4685 90.7636 99.2869 93.3276C109.096 95.9118 119.057 97.8776 129.113 99.2135C134.145 99.8478 139.188 100.321 144.248 100.52C149.306 100.747 154.374 100.651 159.421 100.235C164.449 99.8411 169.424 98.9328 174.269 97.5238C179.071 96.069 183.718 93.9586 187.623 90.843C188.971 89.7692 190.216 88.5704 191.34 87.2627C190.18 88.1403 188.949 88.921 187.662 89.5968C185.278 90.8318 182.776 91.8226 180.194 92.5541C177.638 93.2863 175.039 93.8585 172.413 94.2671C165.093 95.5719 157.655 95.924 150.251 95.857C142.84 95.7662 135.441 95.2473 128.091 94.3028C127.331 94.1919 126.791 93.5795 126.897 92.944C126.979 92.6186 127.185 92.338 127.47 92.1617C127.755 91.9855 128.097 91.9276 128.424 92.0002C128.424 92.0002 131.176 92.445 135.329 92.9189C139.483 93.3929 145.035 93.8775 150.578 94.0527C155.623 94.2367 160.675 94.1352 165.71 93.7489C169.778 93.4111 172.388 92.9538 172.204 92.9902C174.771 92.5485 177.309 91.947 179.802 91.189C182.274 90.4448 184.665 89.4531 186.939 88.2289C189.187 87.0353 191.214 85.4629 192.931 83.5806C194.61 81.7095 195.814 79.4608 196.442 77.0251L196.675 77.0874C197.168 75.2678 197.474 73.4023 197.586 71.5204C197.724 69.0306 197.511 66.5342 196.954 64.1049C196.135 60.693 194.775 57.436 192.925 54.4582C191.069 51.4595 188.899 48.6681 186.453 46.1311C181.575 41.0189 175.882 36.7164 169.907 32.9094C163.891 29.1391 157.622 25.7896 151.145 22.8847C144.677 19.9487 138.036 17.366 131.32 15.074C117.848 10.5159 104.027 7.05982 89.9945 4.73968C82.9874 3.57605 75.9256 2.72259 68.8416 2.23086C61.768 1.70315 54.6661 1.65586 47.5846 2.0893C44.059 2.31921 40.5484 2.74298 37.0685 3.35866C33.6065 3.95623 30.2047 4.86545 26.9046 6.07528C23.6459 7.30818 20.5114 8.92771 17.9463 11.171C16.6686 12.2798 15.5664 13.5769 14.6775 15.0177C14.2442 15.7348 13.8744 16.4885 13.5723 17.2702C13.2763 18.0616 13.0406 18.8744 12.8675 19.7014C12.5033 21.373 12.3428 23.0824 12.3894 24.792C12.4489 26.5029 12.7107 28.2002 13.1694 29.8485C14.1421 33.174 15.6977 36.2983 17.7633 39.0753C19.8362 41.899 22.1938 44.5007 24.7987 46.8395C27.412 49.2065 30.1714 51.4063 33.0605 53.4259C38.8827 57.463 44.9852 61.0783 51.3214 64.2444C57.6446 67.4558 64.1386 70.3488 70.7179 73.0291C83.9152 78.332 97.384 82.9311 111.068 86.8072C116.709 88.433 121.185 90.0929 121.05 90.717C120.915 91.3411 116.114 90.6829 110.439 89.0481C110.439 89.0481 105.183 87.5898 96.1158 84.6463C91.5841 83.1678 86.1069 81.3005 79.8906 78.978C73.6743 76.6556 66.7174 73.8705 59.2885 70.47C51.8596 67.0694 43.9084 63.0684 36.0223 57.9748C31.9529 55.3738 28.0809 52.4751 24.4377 49.3021C20.739 46.0159 17.2009 42.2764 14.4838 37.7968C13.0955 35.5342 12.0214 33.0919 11.2911 30.5375C10.5514 27.9177 10.281 25.1864 10.4924 22.4704C10.604 21.1046 10.8345 19.751 11.1814 18.4251C11.5275 17.0637 12.053 15.7544 12.7441 14.5318C14.1562 12.1078 16.0778 10.0207 18.3749 8.41594C20.629 6.82727 23.0735 5.52976 25.6505 4.55416C28.2041 3.5768 30.8264 2.79159 33.4957 2.20503C38.8253 1.0604 44.242 0.374163 49.6865 0.153809C55.0983 -0.0857567 60.5183 -0.0453105 65.9251 0.274975C71.3097 0.575524 76.6503 1.10698 81.9179 1.80451C92.2145 3.18705 102.419 5.18577 112.475 7.78995C132.003 12.8331 149.608 19.685 163.578 27.4619C170.565 31.3437 176.629 35.4674 181.548 39.6304C186.467 43.7934 190.232 47.9897 192.78 51.76C194.752 54.5944 196.317 57.6933 197.429 60.966C197.787 62.0471 197.99 62.8547 198.109 63.34C198.228 63.8252 198.256 63.9862 198.217 63.8008C198.806 66.3488 199.032 68.968 198.89 71.5807C198.781 73.5528 198.467 75.5085 197.953 77.4157L198.189 77.4788C197.812 78.8566 197.262 80.181 196.552 81.4203Z" fill="#B5B2C9"/>
</svg>
