<svg width="72" height="29" viewBox="0 0 72 29" fill="none" xmlns="http://www.w3.org/2000/svg">
<path d="M31.6915 26.6371C29.0006 25.5245 27.6255 24.7402 25.2763 23.0343L23.1765 21.4741L21.6179 21.9618C17.421 23.2327 13.258 21.9023 8.8012 17.8802C4.94247 14.3721 2.49946 10.0088 0.605474 3.44117C-0.00713611 1.20942 -0.152976 0.258246 0.159294 0.0372931C0.588665 -0.266516 1.32684 1.23205 3.22633 6.56571C6.56425 15.9191 15.649 22.9635 20.9359 20.3357C21.6099 20.0052 21.5937 19.8995 20.4899 18.1324C18.9337 15.6019 18.4192 13.7986 18.613 11.4648C18.7603 9.60333 18.8222 9.44241 19.9932 8.61384C21.1194 7.84621 21.3699 7.78618 22.741 8.19252C24.673 8.72921 26.4605 10.5104 27.1626 12.6203C27.618 13.9675 27.6152 14.5845 27.208 16.1613C26.9254 17.2106 26.3248 18.5142 25.8107 19.1123C25.3024 19.677 24.9492 20.3369 25.054 20.5264C25.2902 21.15 27.4795 22.5883 30.319 24.0351C32.8148 25.2858 33.5976 25.5228 38.0966 26.2933C42.5681 27.0247 43.4183 27.0674 46.2548 26.7299C47.9734 26.5097 50.6831 25.9103 52.3141 25.4006C57.6858 23.6792 63.8397 18.5927 66.9428 13.2925C67.5254 12.2945 68.5275 9.4474 69.4534 6.24419C70.3337 3.3076 71.1398 0.804245 71.2569 0.721387C71.8814 0.279482 71.8426 1.50777 71.0625 5.66215C70.4527 9.02241 69.9332 10.8544 69.147 12.6408C65.9584 19.6416 59.5133 25.2271 52.0602 27.484C50.0008 28.0918 47.3967 28.675 46.2456 28.7866C43.4539 29.0631 34.1549 27.6765 31.6915 26.6371ZM24.6612 17.6119C25.7635 15.9825 26.008 14.7552 25.565 13.1356C24.9191 10.8982 22.1927 8.99052 20.9046 9.90195C20.202 10.3991 19.9986 12.3882 20.4302 14.0744C20.8456 15.6549 22.7552 18.7262 23.3884 18.8347C23.6217 18.8746 24.1967 18.3213 24.6612 17.6119Z" fill="#EDEDED"/>
</svg>
